<svg width="21" height="23" viewBox="0 0 21 23" fill="none" xmlns="http://www.w3.org/2000/svg">
<path fill-rule="evenodd" clip-rule="evenodd" d="M19.707 3.12058C18.6545 1.19654 16.6361 0 14.4431 0H6.55694C4.36385 0 2.34548 1.19654 1.29301 3.12059L0 5.48437V16.5C0 19.8137 2.68629 22.5 6 22.5H15C18.3137 22.5 21 19.8137 21 16.5V5.48437L19.707 3.12058ZM19.0213 4.78437L18.4787 3.79245C17.6718 2.31735 16.1244 1.4 14.4431 1.4H6.55694C4.87557 1.4 3.32816 2.31735 2.52126 3.79245L1.97867 4.78437H19.0213ZM19.6 6.18437H1.4V16.5C1.4 19.0405 3.45949 21.1 6 21.1H15C17.5405 21.1 19.6 19.0405 19.6 16.5V6.18437Z" fill="#ffffff"/>
<path fill-rule="evenodd" clip-rule="evenodd" d="M15.8965 12.8859C15.8965 13.2725 15.5831 13.5859 15.1965 13.5859H5.80278C5.41618 13.5859 5.10278 13.2725 5.10278 12.8859C5.10278 12.4993 5.41618 12.1859 5.80278 12.1859H15.1965C15.5831 12.1859 15.8965 12.4993 15.8965 12.8859Z" fill="#ffffff"/>
</svg>
