<svg width="1418" height="1310" viewBox="0 0 1418 1310" fill="none" xmlns="http://www.w3.org/2000/svg">
<path fill-rule="evenodd" clip-rule="evenodd" d="M1382.52 558.49C1363 578.016 1331.34 578.016 1311.81 558.49C1133.69 380.371 844.905 380.371 666.787 558.49C488.668 736.609 488.668 1025.4 666.787 1203.51C686.313 1223.04 686.313 1254.7 666.787 1274.23C647.261 1293.75 615.602 1293.75 596.076 1274.23C378.905 1057.05 378.905 704.951 596.076 487.779C813.247 270.608 1165.35 270.608 1382.52 487.779C1402.05 507.306 1402.05 538.964 1382.52 558.49Z" fill="#6449FC"/>
<path d="M243.088 267.61C241.537 285.354 221.276 294.677 206.791 284.313L78.2105 192.306C63.8546 182.034 65.9438 160.087 81.98 152.708L224.322 87.2064C240.358 79.827 258.386 92.5167 256.85 110.102L243.088 267.61Z" fill="#F88330"/>
</svg>
